<svg width="32" height="32" viewBox="0 0 32 32" fill="none" xmlns="http://www.w3.org/2000/svg">
<path d="M7.33331 28C6.29331 28 5.38665 27.4 4.94665 26.5333L1.46665 13.92L1.33331 13.3333C1.33331 12.9797 1.47379 12.6406 1.72384 12.3905C1.97389 12.1405 2.31302 12 2.66665 12H8.77331L14.9066 3.24C15.0296 3.06116 15.1944 2.91514 15.3868 2.81469C15.5791 2.71424 15.7932 2.66241 16.0102 2.66372C16.2272 2.66504 16.4406 2.71946 16.6317 2.82224C16.8228 2.92501 16.9859 3.07302 17.1066 3.25333L23.2266 12H29.3333C29.6869 12 30.0261 12.1405 30.2761 12.3905C30.5262 12.6406 30.6666 12.9797 30.6666 13.3333L30.6133 13.72L27.0533 26.5333C26.6133 27.4 25.7066 28 24.6666 28H7.33331ZM16 6.32L12 12H20L16 6.32Z" fill="white"/>
</svg>
